# xmcd CD database file
#
# Track frame offsets:
#	183
#	8383
#	13675
#	23183
#	37985
#	51055
#	65923
#	72653
#	84938
#	101500
#	112568
#	127095
#	143055
#	152410
#	155235
#	159873
#
# Disc length: 2236 seconds
#
# Revision: 1
# Processed by: cddbd v1.5.2PL0 Copyright (c) Steve Scherf et al.
# Submitted via: CDex 1.70beta1
#
DISCID=c008ba10
DTITLE=Various Artist - Mamince
DYEAR=1992
DGENRE=Oldies
TTITLE0=Tve vlasy kvetou
TTITLE1=Nikde neni posviceni
TTITLE2=Nehnevej se mamo
TTITLE3=Mamincina pisen
TTITLE4=Procpak jste tak daleko maminko
TTITLE5=Mamy, vy nase ceske mamy
TTITLE6=Nejsmutnejsi louceni je s mamou
TTITLE7=Az pujdu ke sve mame
TTITLE8=Dokud mas maminku
TTITLE9=Mamince
TTITLE10=Bramborova placka
TTITLE11=Promluvte maminko
TTITLE12=Cerveny kriz
TTITLE13=Maminy oci
TTITLE14=U Rokycan
TTITLE15=Maminy oci
EXTD=YEAR: 1992
EXTT0=
EXTT1=
EXTT2=
EXTT3=
EXTT4=
EXTT5=
EXTT6=
EXTT7=
EXTT8=
EXTT9=
EXTT10=
EXTT11=
EXTT12=
EXTT13=
EXTT14=
EXTT15=
PLAYORDER=
